<mxfile host="app.diagrams.net" modified="2022-12-18T08:35:17.838Z" agent="5.0 (Macintosh; Intel Mac OS X 10_15_7) AppleWebKit/537.36 (KHTML, like Gecko) Chrome/108.0.0.0 Safari/537.36" etag="jjwD5qeQAgnNevphMBna" version="20.5.3" type="github">
  <diagram id="1qVJCfuYaMeoUfc-0dYW" name="Page-1">
    <mxGraphModel dx="1426" dy="769" grid="1" gridSize="10" guides="1" tooltips="1" connect="1" arrows="1" fold="1" page="1" pageScale="1" pageWidth="827" pageHeight="1169" math="0" shadow="0">
      <root>
        <mxCell id="0" />
        <mxCell id="1" parent="0" />
        <mxCell id="QOcSFR8y_e22kkafj4sU-1" value="Bifrost" style="ellipse;whiteSpace=wrap;html=1;aspect=fixed;" parent="1" vertex="1">
          <mxGeometry x="120" y="210" width="170" height="170" as="geometry" />
        </mxCell>
        <mxCell id="QOcSFR8y_e22kkafj4sU-2" value="Filecoin" style="ellipse;whiteSpace=wrap;html=1;aspect=fixed;" parent="1" vertex="1">
          <mxGeometry x="550" y="210" width="170" height="170" as="geometry" />
        </mxCell>
        <mxCell id="QOcSFR8y_e22kkafj4sU-6" value="user" style="shape=hexagon;perimeter=hexagonPerimeter2;whiteSpace=wrap;html=1;fixedSize=1;" parent="1" vertex="1">
          <mxGeometry x="260" y="270" width="60" height="30" as="geometry" />
        </mxCell>
        <mxCell id="QOcSFR8y_e22kkafj4sU-7" value="user" style="shape=hexagon;perimeter=hexagonPerimeter2;whiteSpace=wrap;html=1;fixedSize=1;" parent="1" vertex="1">
          <mxGeometry x="520" y="270" width="60" height="30" as="geometry" />
        </mxCell>
        <mxCell id="QOcSFR8y_e22kkafj4sU-8" value="" style="endArrow=none;dashed=1;html=1;dashPattern=1 3;strokeWidth=2;rounded=0;exitX=1;exitY=0.5;exitDx=0;exitDy=0;entryX=0;entryY=0.5;entryDx=0;entryDy=0;" parent="1" source="QOcSFR8y_e22kkafj4sU-6" target="QOcSFR8y_e22kkafj4sU-7" edge="1">
          <mxGeometry width="50" height="50" relative="1" as="geometry">
            <mxPoint x="360" y="350" as="sourcePoint" />
            <mxPoint x="410" y="300" as="targetPoint" />
          </mxGeometry>
        </mxCell>
        <mxCell id="QOcSFR8y_e22kkafj4sU-9" value="Multisig&lt;br&gt;Owner" style="shape=cylinder3;whiteSpace=wrap;html=1;boundedLbl=1;backgroundOutline=1;size=15;" parent="1" vertex="1">
          <mxGeometry x="598.75" y="190" width="72.5" height="70" as="geometry" />
        </mxCell>
        <mxCell id="QOcSFR8y_e22kkafj4sU-11" value="cross-in-out module" style="shape=cylinder3;whiteSpace=wrap;html=1;boundedLbl=1;backgroundOutline=1;size=15;" parent="1" vertex="1">
          <mxGeometry x="168.75" y="190" width="72.5" height="60" as="geometry" />
        </mxCell>
        <mxCell id="QOcSFR8y_e22kkafj4sU-21" value="5. Bind user&#39;s &lt;br&gt;Bifrostaccount and &lt;br&gt;Filecoin account" style="curved=1;endArrow=classic;html=1;rounded=0;exitX=1;exitY=0;exitDx=0;exitDy=15;exitPerimeter=0;entryX=1;entryY=0.5;entryDx=0;entryDy=0;dashed=1;entryPerimeter=0;" parent="1" source="QOcSFR8y_e22kkafj4sU-11" target="QOcSFR8y_e22kkafj4sU-11" edge="1">
          <mxGeometry x="0.0801" y="-10" width="50" height="50" relative="1" as="geometry">
            <mxPoint x="290" y="220" as="sourcePoint" />
            <mxPoint x="340" y="170" as="targetPoint" />
            <Array as="points">
              <mxPoint x="280" y="180" />
              <mxPoint x="320" y="180" />
              <mxPoint x="320" y="210" />
              <mxPoint x="290" y="220" />
            </Array>
            <mxPoint as="offset" />
          </mxGeometry>
        </mxCell>
        <mxCell id="womPOICztjm91fhaPhi_-1" value="Relayer" style="shape=cylinder3;whiteSpace=wrap;html=1;boundedLbl=1;backgroundOutline=1;size=15;" parent="1" vertex="1">
          <mxGeometry x="390" y="390" width="60" height="80" as="geometry" />
        </mxCell>
        <mxCell id="womPOICztjm91fhaPhi_-7" value="" style="endArrow=none;dashed=1;html=1;rounded=0;exitX=1;exitY=0.5;exitDx=0;exitDy=0;" parent="1" edge="1">
          <mxGeometry width="50" height="50" relative="1" as="geometry">
            <mxPoint x="710" y="335" as="sourcePoint" />
            <mxPoint x="720" y="335" as="targetPoint" />
          </mxGeometry>
        </mxCell>
        <mxCell id="womPOICztjm91fhaPhi_-11" value="" style="endArrow=classic;html=1;rounded=0;dashed=1;exitX=0.5;exitY=1;exitDx=0;exitDy=0;exitPerimeter=0;entryX=1;entryY=0;entryDx=0;entryDy=52.5;entryPerimeter=0;" parent="1" source="QOcSFR8y_e22kkafj4sU-9" target="womPOICztjm91fhaPhi_-1" edge="1">
          <mxGeometry width="50" height="50" relative="1" as="geometry">
            <mxPoint x="580" y="540" as="sourcePoint" />
            <mxPoint x="630" y="490" as="targetPoint" />
          </mxGeometry>
        </mxCell>
        <mxCell id="vZTD1PaGSZ1KzE3osccO-1" value="4. Relay registering info" style="edgeLabel;html=1;align=center;verticalAlign=middle;resizable=0;points=[];" vertex="1" connectable="0" parent="womPOICztjm91fhaPhi_-11">
          <mxGeometry x="0.3876" y="3" relative="1" as="geometry">
            <mxPoint as="offset" />
          </mxGeometry>
        </mxCell>
        <mxCell id="womPOICztjm91fhaPhi_-12" value="" style="endArrow=classic;html=1;rounded=0;dashed=1;exitX=0;exitY=0;exitDx=0;exitDy=52.5;exitPerimeter=0;entryX=0.5;entryY=1;entryDx=0;entryDy=0;entryPerimeter=0;" parent="1" source="womPOICztjm91fhaPhi_-1" target="QOcSFR8y_e22kkafj4sU-11" edge="1">
          <mxGeometry width="50" height="50" relative="1" as="geometry">
            <mxPoint x="270" y="510" as="sourcePoint" />
            <mxPoint x="320" y="460" as="targetPoint" />
          </mxGeometry>
        </mxCell>
        <mxCell id="womPOICztjm91fhaPhi_-15" value="Register bifrost-filecoin account pair" style="text;html=1;strokeColor=none;fillColor=none;align=center;verticalAlign=middle;whiteSpace=wrap;rounded=0;fontStyle=1;fontSize=24;" parent="1" vertex="1">
          <mxGeometry x="120" y="60" width="460" height="30" as="geometry" />
        </mxCell>
        <mxCell id="z5sPciKj7eO9m0xCSq6S-1" value="Bifrost Dapp" style="shape=process;whiteSpace=wrap;html=1;backgroundOutline=1;" parent="1" vertex="1">
          <mxGeometry x="507" y="110" width="120" height="60" as="geometry" />
        </mxCell>
        <mxCell id="z5sPciKj7eO9m0xCSq6S-2" value="Actor" style="shape=umlActor;verticalLabelPosition=bottom;verticalAlign=top;html=1;outlineConnect=0;" parent="1" vertex="1">
          <mxGeometry x="220" y="110" width="30" height="60" as="geometry" />
        </mxCell>
        <mxCell id="z5sPciKj7eO9m0xCSq6S-3" value="" style="endArrow=classic;html=1;rounded=0;entryX=0;entryY=0.5;entryDx=0;entryDy=0;dashed=1;" parent="1" target="z5sPciKj7eO9m0xCSq6S-1" edge="1">
          <mxGeometry width="50" height="50" relative="1" as="geometry">
            <mxPoint x="260" y="140" as="sourcePoint" />
            <mxPoint x="320" y="120" as="targetPoint" />
          </mxGeometry>
        </mxCell>
        <mxCell id="z5sPciKj7eO9m0xCSq6S-4" value="1. User calls wallet in Bifrost Dapp" style="edgeLabel;html=1;align=center;verticalAlign=middle;resizable=0;points=[];" parent="z5sPciKj7eO9m0xCSq6S-3" vertex="1" connectable="0">
          <mxGeometry x="-0.1169" y="2" relative="1" as="geometry">
            <mxPoint x="11" y="2" as="offset" />
          </mxGeometry>
        </mxCell>
        <mxCell id="vZTD1PaGSZ1KzE3osccO-2" value="" style="curved=1;endArrow=classic;html=1;rounded=0;exitX=0.992;exitY=0.617;exitDx=0;exitDy=0;exitPerimeter=0;entryX=0.75;entryY=0;entryDx=0;entryDy=0;dashed=1;" edge="1" parent="1" source="z5sPciKj7eO9m0xCSq6S-1" target="z5sPciKj7eO9m0xCSq6S-1">
          <mxGeometry width="50" height="50" relative="1" as="geometry">
            <mxPoint x="660" y="150" as="sourcePoint" />
            <mxPoint x="710" y="100" as="targetPoint" />
            <Array as="points">
              <mxPoint x="710" y="120" />
              <mxPoint x="660" y="90" />
            </Array>
          </mxGeometry>
        </mxCell>
        <mxCell id="vZTD1PaGSZ1KzE3osccO-5" value="2. User signs binding&lt;br&gt;message for his Bifrost&lt;br&gt;and Filecoin accounts" style="edgeLabel;html=1;align=center;verticalAlign=middle;resizable=0;points=[];" vertex="1" connectable="0" parent="vZTD1PaGSZ1KzE3osccO-2">
          <mxGeometry x="0.1443" y="3" relative="1" as="geometry">
            <mxPoint x="21" y="5" as="offset" />
          </mxGeometry>
        </mxCell>
        <mxCell id="vZTD1PaGSZ1KzE3osccO-3" value="" style="curved=1;endArrow=classic;html=1;rounded=0;dashed=1;exitX=0.5;exitY=1;exitDx=0;exitDy=0;entryX=0;entryY=1;entryDx=0;entryDy=0;" edge="1" parent="1" source="z5sPciKj7eO9m0xCSq6S-1" target="z5sPciKj7eO9m0xCSq6S-1">
          <mxGeometry width="50" height="50" relative="1" as="geometry">
            <mxPoint x="400" y="230" as="sourcePoint" />
            <mxPoint x="450" y="180" as="targetPoint" />
            <Array as="points">
              <mxPoint x="530" y="230" />
              <mxPoint x="420" y="230" />
            </Array>
          </mxGeometry>
        </mxCell>
        <mxCell id="vZTD1PaGSZ1KzE3osccO-6" value="3, Bifrost Dapp&amp;nbsp; verifies&lt;br&gt;signatures for both accounts" style="edgeLabel;html=1;align=center;verticalAlign=middle;resizable=0;points=[];" vertex="1" connectable="0" parent="vZTD1PaGSZ1KzE3osccO-3">
          <mxGeometry x="0.0028" y="-9" relative="1" as="geometry">
            <mxPoint x="23" y="-11" as="offset" />
          </mxGeometry>
        </mxCell>
      </root>
    </mxGraphModel>
  </diagram>
</mxfile>
